<svg xmlns="http://www.w3.org/2000/svg" viewBox="0 0 800 450">
  <defs>
    <linearGradient id="bgcrm" x1="0%" y1="0%" x2="100%" y2="100%">
      <stop offset="0%" style="stop-color:#1e293b"/>
      <stop offset="100%" style="stop-color:#0f172a"/>
    </linearGradient>
  </defs>
  <rect width="800" height="450" fill="url(#bgcrm)"/>
  <!-- Sidebar -->
  <rect x="40" y="60" width="160" height="340" rx="8" fill="#1e293b" stroke="#334155"/>
  <rect x="55" y="80" width="130" height="28" rx="4" fill="#3b82f6" opacity="0.2"/>
  <text x="70" y="99" fill="#3b82f6" font-family="system-ui" font-size="12">Dashboard</text>
  <text x="70" y="130" fill="#94a3b8" font-family="system-ui" font-size="12">Contacts</text>
  <text x="70" y="158" fill="#94a3b8" font-family="system-ui" font-size="12">Deals</text>
  <text x="70" y="186" fill="#94a3b8" font-family="system-ui" font-size="12">Analytics</text>
  <text x="70" y="214" fill="#94a3b8" font-family="system-ui" font-size="12">Webhooks</text>
  <!-- Pipeline columns -->
  <rect x="220" y="100" width="130" height="260" rx="6" fill="#1e293b" stroke="#334155"/>
  <text x="285" y="125" text-anchor="middle" fill="#94a3b8" font-family="system-ui" font-size="11" font-weight="bold">LEAD</text>
  <rect x="235" y="140" width="100" height="50" rx="4" fill="#334155"/>
  <text x="245" y="162" fill="#f8fafc" font-size="10">Acme Corp</text>
  <text x="245" y="178" fill="#22c55e" font-size="10">$12,000</text>
  <rect x="235" y="200" width="100" height="50" rx="4" fill="#334155"/>
  <text x="245" y="222" fill="#f8fafc" font-size="10">TechStart</text>
  <text x="245" y="238" fill="#22c55e" font-size="10">$8,500</text>

  <rect x="370" y="100" width="130" height="260" rx="6" fill="#1e293b" stroke="#334155"/>
  <text x="435" y="125" text-anchor="middle" fill="#94a3b8" font-family="system-ui" font-size="11" font-weight="bold">PROPOSAL</text>
  <rect x="385" y="140" width="100" height="50" rx="4" fill="#334155"/>
  <text x="395" y="162" fill="#f8fafc" font-size="10">GlobalFin</text>
  <text x="395" y="178" fill="#f59e0b" font-size="10">$24,000</text>

  <rect x="520" y="100" width="130" height="260" rx="6" fill="#1e293b" stroke="#334155"/>
  <text x="585" y="125" text-anchor="middle" fill="#94a3b8" font-family="system-ui" font-size="11" font-weight="bold">CLOSED</text>
  <rect x="535" y="140" width="100" height="50" rx="4" fill="#334155"/>
  <text x="545" y="162" fill="#f8fafc" font-size="10">MedTech</text>
  <text x="545" y="178" fill="#22c55e" font-size="10">$18,500</text>

  <!-- Stats cards -->
  <rect x="670" y="100" width="100" height="60" rx="6" fill="#1e293b" stroke="#334155"/>
  <text x="720" y="125" text-anchor="middle" fill="#94a3b8" font-size="10">Revenue</text>
  <text x="720" y="148" text-anchor="middle" fill="#22c55e" font-size="16" font-weight="bold">$63K</text>
  <rect x="670" y="175" width="100" height="60" rx="6" fill="#1e293b" stroke="#334155"/>
  <text x="720" y="200" text-anchor="middle" fill="#94a3b8" font-size="10">Deals</text>
  <text x="720" y="223" text-anchor="middle" fill="#3b82f6" font-size="16" font-weight="bold">24</text>
  <!-- Title -->
  <text x="400" y="40" text-anchor="middle" fill="#f8fafc" font-family="system-ui" font-size="24" font-weight="bold">Enterprise CRM Platform</text>
</svg>
